<svg xmlns="http://www.w3.org/2000/svg" xmlns:xlink="http://www.w3.org/1999/xlink" viewBox="0 0 745.34 750.89"><defs><style>.cls-1,.cls-4{opacity:0.1;}.cls-2{fill:#3f3d56;}.cls-3{fill:#6c63ff;}.cls-4{isolation:isolate;}.cls-5{fill:none;stroke:#3f3d56;stroke-miterlimit:10;stroke-width:4px;}.cls-6{fill:#f94;}.cls-7{fill:url(#linear-gradient);}.cls-8{fill:#2f2e41;}.cls-9{fill:#fbbebe;}.cls-10{fill:#e8e8f0;}.cls-11{fill:#f86d70;}</style><linearGradient id="linear-gradient" x1="-63.63" y1="1166.67" x2="-63.63" y2="1604.94" gradientTransform="matrix(1, 0, 0, -1, 512, 1913.41)" gradientUnits="userSpaceOnUse"><stop offset="0" stop-color="gray" stop-opacity="0.25"/><stop offset="0.54" stop-color="gray" stop-opacity="0.12"/><stop offset="1" stop-color="gray" stop-opacity="0.1"/></linearGradient></defs><title>contact-us-page-design_1</title><g id="Layer_2" data-name="Layer 2"><g id="Layer_1-2" data-name="Layer 1"><g class="cls-1"><ellipse class="cls-2" cx="91.02" cy="541.06" rx="19.08" ry="24.98"/><path class="cls-2" d="M106.11,434.17a30.2,30.2,0,0,0,4-15.28c0-13.8-8.55-25-19.08-25s-19.09,11.18-19.09,25a30.19,30.19,0,0,0,4,15.28,31.3,31.3,0,0,0,0,30.53,31.32,31.32,0,0,0,0,30.54,30.05,30.05,0,0,0-4,15.27c0,13.78,8.54,25,19.09,25s19.13-11.16,19.13-24.95a30.16,30.16,0,0,0-4-15.27,31.2,31.2,0,0,0,0-30.53,31.21,31.21,0,0,0,0-30.54Z"/><ellipse class="cls-2" cx="91.02" cy="388.39" rx="19.08" ry="24.98"/><ellipse class="cls-2" cx="91.02" cy="357.86" rx="19.08" ry="24.98"/><path class="cls-3" d="M19.6,148.28a91.77,91.77,0,0,1-7.11-10.47l50.15-8.23-54.27.49A91.61,91.61,0,0,1,6.69,57.63L79.46,95.37,12.39,46A91.42,91.42,0,1,1,163.3,148.33,91.27,91.27,0,0,1,173.73,165L108.6,198.81,178,175.52a91.52,91.52,0,0,1-14.75,85.85,91.42,91.42,0,1,1-143.7,0,91.41,91.41,0,0,1,0-113Z"/><path class="cls-4" d="M182.83,205.41a91,91,0,0,1-19.56,56.52,91.42,91.42,0,1,1-143.7,0C7.31,246.37,182.83,195.15,182.83,205.41Z"/></g><g class="cls-1"><ellipse class="cls-2" cx="275.21" cy="544.65" rx="14.27" ry="18.66"/><path class="cls-2" d="M286.49,464.79a22.58,22.58,0,0,0,3-11.41c0-10.31-6.37-18.67-14.25-18.67s-14.27,8.38-14.27,18.67a22.49,22.49,0,0,0,3,11.41,23.3,23.3,0,0,0,0,22.82,23.3,23.3,0,0,0,0,22.82,22.45,22.45,0,0,0-3,11.4c0,10.31,6.39,18.68,14.27,18.68s14.25-8.39,14.25-18.68a22.54,22.54,0,0,0-3-11.4,23.45,23.45,0,0,0,0-22.82A23.45,23.45,0,0,0,286.49,464.79Z"/><ellipse class="cls-2" cx="275.21" cy="430.56" rx="14.27" ry="18.66"/><ellipse class="cls-2" cx="275.21" cy="407.74" rx="14.27" ry="18.66"/><path class="cls-3" d="M221.82,250.86a68.88,68.88,0,0,1-5.32-7.81L254,236.89l-40.53.3a68.47,68.47,0,0,1-1.31-54.14l54.38,28.22-50.15-36.89A68.33,68.33,0,1,1,329.2,250.84,67.57,67.57,0,0,1,337,263.3l-48.62,25.27,51.86-17.41a68.34,68.34,0,0,1-11,64.16,68.31,68.31,0,1,1-107.31,0,68.31,68.31,0,0,1,0-84.48Z"/><path class="cls-4" d="M343.82,293.82a68,68,0,0,1-14.62,42.24,68.31,68.31,0,1,1-107.31,0C212.66,324.44,343.82,286.16,343.82,293.82Z"/></g><path class="cls-5" d="M78.81,702.26c4.37-8.11-.59-18-6.29-25.26S59.84,662.21,60,653C60.21,639.81,74.26,632,85.48,625a125.09,125.09,0,0,0,22.89-18.45,33.64,33.64,0,0,0,7-9.42c2.34-5.17,2.27-11.07,2.12-16.77q-.74-28.32-2.8-56.61"/><path class="cls-3" d="M135.57,522.78a20.64,20.64,0,0,0-10.32-16.91L120.63,515l.15-11.06a20.63,20.63,0,1,0,14.79,18.84Z"/><path class="cls-3" d="M99.23,662.49a20.64,20.64,0,0,1-39-8.38,20.36,20.36,0,0,1,1.34-8.39,20.66,20.66,0,0,1,38.57.22l-12.89,10.5,14.18-3.36A20.5,20.5,0,0,1,99.23,662.49Z"/><path class="cls-3" d="M88.6,622.54a20.64,20.64,0,0,1-6.54-40.49l-.12,8.5,4.68-9.25h0a20.64,20.64,0,1,1,1.93,41.24Z"/><path class="cls-3" d="M139.15,589.07a20.64,20.64,0,1,1,9.13-38.57l-3.64,10.06,7.43-7.34a20.64,20.64,0,0,1-13,35.83Z"/><path class="cls-4" d="M133.27,528.28c-4.76.52-9.39,2-14.19,2.3S109,529.73,106,526a64.4,64.4,0,0,1-3.82-6.71,14.77,14.77,0,0,0-5.2-4.89,20.64,20.64,0,1,0,38.56,13.71C134.83,528.15,134,528.2,133.27,528.28Z"/><path class="cls-4" d="M139.15,589.07a20.64,20.64,0,0,1-19.63-29.45,15.32,15.32,0,0,1,4.14,4.16,70.45,70.45,0,0,0,4.09,6.83c3.22,3.77,8.72,5,13.7,4.77s9.79-1.67,14.76-2.09c.68,0,1.37-.1,2.08-.12A20.64,20.64,0,0,1,139.15,589.07Z"/><path class="cls-4" d="M89,622.42a20.65,20.65,0,0,1-19.81-29.06,16.63,16.63,0,0,1,4.38,4.19,68.67,68.67,0,0,0,4.48,7c3.47,3.87,9.34,5.25,14.6,5s10.06-1.36,15.09-1.68A20.67,20.67,0,0,1,89,622.42Z"/><path class="cls-4" d="M99.23,662.49a20.64,20.64,0,0,1-39-8.38,20.36,20.36,0,0,1,1.34-8.39,20.54,20.54,0,0,1,4.53,4c2,2.39,3.25,5,5.54,7.33,4.2,4.14,11,5.85,17.08,6A87.45,87.45,0,0,0,99.23,662.49Z"/><circle class="cls-2" cx="543" cy="361.87" r="106.87"/><path class="cls-6" d="M604.16,329.31l-32.1,32.55a.58.58,0,0,0,0,.82h0l22.52,23.88a3.87,3.87,0,0,1-2.73,6.59A3.92,3.92,0,0,1,589.1,392l-22.4-23.79a.62.62,0,0,0-.86,0l-5.46,5.5a24,24,0,0,1-17.15,7.19,24.56,24.56,0,0,1-17.46-7.39l-5.24-5.35a.62.62,0,0,0-.86,0l-22.35,23.73a3.88,3.88,0,0,1-5.47,0h0a3.87,3.87,0,0,1,0-5.46h0l22.43-23.82a.63.63,0,0,0,0-.83l-32.09-32.56a.59.59,0,0,0-.83,0,.56.56,0,0,0-.18.42v65.14a9.55,9.55,0,0,0,9.54,9.5H595.65a9.55,9.55,0,0,0,9.54-9.5V329.72a.6.6,0,0,0-.57-.61A.58.58,0,0,0,604.16,329.31Z"/><path class="cls-6" d="M543,373.17a16.18,16.18,0,0,0,11.67-4.81l46.6-47.43a9.28,9.28,0,0,0-5.88-2.14H490.69a9.17,9.17,0,0,0-5.88,2.14l46.61,47.43A16.1,16.1,0,0,0,543,373.17Z"/><path class="cls-4" d="M542.16,255A106.91,106.91,0,0,0,435.21,363.39C436,421,483,468,540.53,468.82A106.91,106.91,0,0,0,649,362v-.1A106.91,106.91,0,0,0,542.16,255Zm-.51,199.51a92.66,92.66,0,1,1,92.66-92.65h0A92.66,92.66,0,0,1,541.65,454.52Z"/><circle class="cls-2" cx="240.03" cy="365.43" r="85.98"/><path class="cls-6" d="M240,324.29l-34.28,79.08,3.2,3.2L240,392.86l31.08,13.71,3.2-3.2Z"/><path class="cls-4" d="M240.41,279.42a86,86,0,1,0,86,86.06v0A86,86,0,0,0,240.41,279.42Zm-.9,160.81a74.84,74.84,0,1,1,74.84-74.83v0a74.84,74.84,0,0,1-74.84,74.83Z"/><circle class="cls-2" cx="369.89" cy="454.96" r="114.96"/><path class="cls-6" d="M419.24,484.61c-4-4-13.63-10-18.4-12.3-5.51-2.64-7.54-2.6-11.43.22-3.25,2.3-5.35,4.52-9.08,3.7s-11.11-6.38-18.25-13.5-12.68-14.45-13.48-18.24,1.39-5.84,3.72-9.08c2.8-3.9,2.88-5.93.22-11.43-2.3-4.78-8.27-14.38-12.31-18.4s-4.91-3.14-7.12-2.3a40.65,40.65,0,0,0-6.52,3.45c-4,2.67-6.24,4.91-7.82,8.26s-3.36,9.6,5.81,25.91A144.46,144.46,0,0,0,350,474.8h0a145,145,0,0,0,34,25.46c16.31,9.2,22.55,7.37,25.91,5.81s5.59-3.79,8.26-7.82a41.13,41.13,0,0,0,3.45-6.53C422.38,489.52,423.27,488.62,419.24,484.61Z"/><path class="cls-4" d="M369.4,340A115,115,0,0,0,254.34,456.6c.84,61.94,51.36,112.51,113.3,113.41a115,115,0,0,0,116.7-114.94V455A115,115,0,0,0,369.4,340Zm.49,214.62A99.68,99.68,0,1,1,469.56,455h0a99.67,99.67,0,0,1-99.67,99.67Z"/><circle class="cls-2" cx="543" cy="361.87" r="106.87"/><path class="cls-6" d="M604.16,329.31l-32.1,32.55a.58.58,0,0,0,0,.82h0l22.52,23.88a3.87,3.87,0,0,1-2.73,6.59A3.92,3.92,0,0,1,589.1,392l-22.4-23.79a.62.62,0,0,0-.86,0l-5.46,5.5a24,24,0,0,1-17.15,7.19,24.56,24.56,0,0,1-17.46-7.39l-5.24-5.35a.62.62,0,0,0-.86,0l-22.35,23.73a3.88,3.88,0,0,1-5.47,0h0a3.87,3.87,0,0,1,0-5.46h0l22.43-23.82a.63.63,0,0,0,0-.83l-32.09-32.56a.59.59,0,0,0-.83,0,.56.56,0,0,0-.18.42v65.14a9.55,9.55,0,0,0,9.54,9.5H595.65a9.55,9.55,0,0,0,9.54-9.5V329.72a.6.6,0,0,0-.57-.61A.58.58,0,0,0,604.16,329.31Z"/><path class="cls-6" d="M543,373.17a16.18,16.18,0,0,0,11.67-4.81l46.6-47.43a9.28,9.28,0,0,0-5.88-2.14H490.69a9.17,9.17,0,0,0-5.88,2.14l46.61,47.43A16.1,16.1,0,0,0,543,373.17Z"/><path class="cls-4" d="M542.16,255A106.91,106.91,0,0,0,435.21,363.39C436,421,483,468,540.53,468.82A106.91,106.91,0,0,0,649,362v-.1A106.91,106.91,0,0,0,542.16,255Zm-.51,199.51a92.66,92.66,0,1,1,92.66-92.65h0A92.66,92.66,0,0,1,541.65,454.52Z"/><path class="cls-7" d="M743.71,430.88a42.37,42.37,0,0,0-17.23-34.37c-.14-24.29-18-45-42.34-48.95a50.09,50.09,0,0,0-33.7-37.11h0a43.31,43.31,0,0,0-6.26-1.43h-7.44c-24.17.55-44.42,18.19-47.93,41.75-15.47-3.52-29.61,1-32.21,10.67a12.85,12.85,0,0,0,.44,7.73c2.64,7.46,11.23,14.62,22.73,18.14l1.5.43,2.25.57H584a38.09,38.09,0,0,0,17,50.29l-1,.61a13.61,13.61,0,0,0-3.35,4.6,68.88,68.88,0,0,0-6.48,15.36c-1.1,4.6-1.27,9.38-2.64,13.93-2.55,8.38-9.07,15.45-9.82,24.18-.36,3.9.31,8.68-2.51,11.19A14,14,0,0,1,573,510a17.89,17.89,0,0,0-4.89,5.07,16.77,16.77,0,0,1-3.44,4.86c-2.55,1.87-6.74,1.7-8,4.6s2,6.34,1.23,9.51-3.48,3.77-5.46,5.55a19.32,19.32,0,0,0-4.72,8.68,29.23,29.23,0,0,1-23.79-6,43,43,0,0,1,2.47,8.68,38.71,38.71,0,0,0-12.82-6.33,40.46,40.46,0,0,1-13.66-10l7.32-1L475,485.13l-9.56-2L474,499.36a5.18,5.18,0,0,0-2.91,3.43,14.61,14.61,0,0,0-.31,5.51,97.53,97.53,0,0,0,2.21,13l2.46,11.37c.23,1,.49,2.12.8,3.17a30.53,30.53,0,0,0-9.56,1,84.22,84.22,0,0,0-19.87-4.65,7.37,7.37,0,0,0-8.59,3.35,133,133,0,0,0-14.76,20.48c-17.62,29.77-40.58,55.76-62.3,82.67-15,6-30.09,11.67-45.2,17.36l-32.51,12.24a50.06,50.06,0,0,1-20.18,4.34c-3.08,0-6.92-.65-8.81,1.95a17.91,17.91,0,0,0-2,4.34l-3.35.35h0a37.7,37.7,0,0,0-7.8-14.15,4.92,4.92,0,0,0-3.66,2.78c-.79,1.43-1.27,3-2.2,4.34-1.72,2.51-4.76,3.73-6.92,5.86s-3.52,5.42-5.9,7.59a23.54,23.54,0,0,1-11.06,4.34,70.28,70.28,0,0,0-17.31,6.47,28.12,28.12,0,0,1-6.39,2.9,24.08,24.08,0,0,1-7.53.26l-17.18-1.25a13.85,13.85,0,0,0-4.63.21,8.66,8.66,0,0,0-5.46,8.68,13.62,13.62,0,0,0,5.46,9.33,35,35,0,0,0,9.78,5,290.39,290.39,0,0,0,45.82,13.37v3.43a79.08,79.08,0,0,0,35.24,8.24,5.6,5.6,0,0,0,2.65-.47,5.74,5.74,0,0,0,2.2-3.39,137.94,137.94,0,0,0,6.87-33.24h0a17.75,17.75,0,0,0,6.21-1.56c5.91-1.61,11.81,2.38,17.94,3,7.53.83,14.49-3.51,21.63-6.16l3.08-1a33.55,33.55,0,0,1-7.14,6.73c-3,2.08-6.25,3.65-9.12,5.82a62.82,62.82,0,0,1-7.75,5.9,48.47,48.47,0,0,1-5.95,2.25,39.61,39.61,0,0,0-8.5,4.34,17.15,17.15,0,0,0-5.77,5.56,8.24,8.24,0,0,0-.49,7.81,8.42,8.42,0,0,0,5.69,3.91,24.15,24.15,0,0,0,7,0c9.34-.7,18.64-1.52,27.93-2.35a74.15,74.15,0,0,0,11.68-1.65c2-.47,4.05-1.12,6.08-1.69A55.1,55.1,0,0,1,334.21,739a8.9,8.9,0,0,1,3.08.3c2.16.7,3.7,2.87,5.9,3.3a9,9,0,0,0,4.41-.56,99.63,99.63,0,0,1,20.66-2.17c3,0,6.61-.74,8-3.52s-1.15-7.25-2.29-10.93a33.1,33.1,0,0,1-1-7.21,44.6,44.6,0,0,0-5.11-17.1,43.82,43.82,0,0,1-3.83-7.81,201.28,201.28,0,0,0,38-19A68.27,68.27,0,0,1,423.77,664,59.86,59.86,0,0,1,451,667.13a628.66,628.66,0,0,1,62.43,21.44c9.73,3.95,19.42,8.12,29.47,11.11a45.79,45.79,0,0,0,10.48,10,49.17,49.17,0,0,0,22.69,6.12A304,304,0,0,0,608,717a54.61,54.61,0,0,0,23.79-4.34,24.56,24.56,0,0,0,5-3.26,19.9,19.9,0,0,0,15.69-5.68,37.42,37.42,0,0,0,11.93-18.58c2.6-9.89.62-21.7,6.79-29.59,1.63-2.17,3.79-3.91,5.42-6.08a16.94,16.94,0,0,0,2.82-10,2.11,2.11,0,0,1,.26-.4,35.92,35.92,0,0,0,2.65-10,55.48,55.48,0,0,1,2.86-7.89,240.14,240.14,0,0,0,8.19-23.4,134.07,134.07,0,0,0,3.79-16c.66-4.34,1.06-8.68,1.41-13a80.12,80.12,0,0,1,4-20.09,161,161,0,0,0,9.25-48.09v-.95a32.41,32.41,0,0,0,29-32.81,33.79,33.79,0,0,0-3-14A42.87,42.87,0,0,0,743.71,430.88ZM584,621.76c.49,1.72,1.06,3.39,1.63,5.07-2.6-2.51-5.11-5.11-7.71-7.67,1,.36,2.07.66,3,1.06a16.87,16.87,0,0,1,2.91,1.54ZM571.52,613c-15.25-13.21-32.86-23.48-48.46-36.29,8.5,4.18,16.78,9.07,25,13.74q14.58,8.33,29.55,16a24.09,24.09,0,0,1-6.21,6.56ZM579,582.12l.75-.75v5.24l-4.1-1.41a36,36,0,0,0,3.22-3.08ZM444,615.83a125.94,125.94,0,0,0,16.21-23.12c6,10.53,15.86,18.15,24.18,27C470.91,618,457.43,616.54,444,615.83Z"/><polygon class="cls-8" points="465.62 487.57 475.23 489.5 507.95 537.91 493.55 539.85 465.62 487.57"/><path class="cls-9" d="M232.79,683.93a187.88,187.88,0,0,0,9.6,25,237.73,237.73,0,0,0,31.93-9.12,98.18,98.18,0,0,0-6.65-8.81,33,33,0,0,0-9-6.92,25.07,25.07,0,0,0-11,0C242.74,683.93,237.76,684,232.79,683.93Z"/><path class="cls-8" d="M260.36,696.84a19.88,19.88,0,0,1-10.92-12.42,40.06,40.06,0,0,0-8.33-14.85,4.78,4.78,0,0,0-3.7,2.78c-.79,1.41-1.28,3-2.16,4.4-1.76,2.51-4.84,3.75-7.05,5.86s-3.52,5.42-5.9,7.58a23.44,23.44,0,0,1-11.14,4.4,72.41,72.41,0,0,0-17.62,6.48,30.13,30.13,0,0,1-6.48,2.9,25.28,25.28,0,0,1-7.57,0l-17.36-1.23a13.53,13.53,0,0,0-4.4,0,8.42,8.42,0,0,0-5.51,8.81,13.22,13.22,0,0,0,5.51,9.34,36.56,36.56,0,0,0,9.86,5,289.9,289.9,0,0,0,46.52,13.21v3.44a80.54,80.54,0,0,0,35.46,8.24,6.13,6.13,0,0,0,2.64-.44,5.78,5.78,0,0,0,2.2-3.44,137.43,137.43,0,0,0,7.27-37.7,30.1,30.1,0,0,0-.75-9.74c-1-3.13,2.29-1.8-.7-3"/><path class="cls-8" d="M591.51,631.43c-51.44,3.08-102.28-12-153.81-13.57a75.21,75.21,0,0,0-19.12,1.19,96.26,96.26,0,0,0-18.94,7.36c-27.62,12.86-56.21,23.52-84.75,34.13l-32.81,12.2a49.62,49.62,0,0,1-20.31,4.41c-3.13,0-7-.66-8.81,1.94-5.33,7.93-2.82,19.51.7,28.41,1.15,2.86,3.09,6,6.17,6.3a18.17,18.17,0,0,0,6.26-1.59c5.94-1.58,11.89,2.42,18.06,3.08,7.57.8,14.62-3.52,21.8-6.16,11.89-4.41,24.84-4.41,37.35-6.34,20.93-3.48,40.35-13.22,58.5-24.28a68.22,68.22,0,0,1,21.8-10.3A60.23,60.23,0,0,1,451,671.33,631,631,0,0,1,514,692.74a292.82,292.82,0,0,0,32.86,12,119,119,0,0,0,73.69-4.41c8.24-3.26,17.18-8.81,17.62-17.88.31-5.07-3.66-9.52-6.25-13.88-1.68-2.77-3.4-5.55-5.2-8.23C617.9,647.59,607.15,630.5,591.51,631.43Z"/><path class="cls-4" d="M591.51,631.43c-51.44,3.08-102.28-12-153.81-13.57a75.21,75.21,0,0,0-19.12,1.19,96.26,96.26,0,0,0-18.94,7.36c-27.62,12.86-56.21,23.52-84.75,34.13l-32.81,12.2a49.62,49.62,0,0,1-20.31,4.41c-3.13,0-7-.66-8.81,1.94-5.33,7.93-2.82,19.51.7,28.41,1.15,2.86,3.09,6,6.17,6.3a18.17,18.17,0,0,0,6.26-1.59c5.94-1.58,11.89,2.42,18.06,3.08,7.57.8,14.62-3.52,21.8-6.16,11.89-4.41,24.84-4.41,37.35-6.34,20.93-3.48,40.35-13.22,58.5-24.28a68.22,68.22,0,0,1,21.8-10.3A60.23,60.23,0,0,1,451,671.33,631,631,0,0,1,514,692.74a292.82,292.82,0,0,0,32.86,12,119,119,0,0,0,73.69-4.41c8.24-3.26,17.18-8.81,17.62-17.88.31-5.07-3.66-9.52-6.25-13.88-1.68-2.77-3.4-5.55-5.2-8.23C617.9,647.59,607.15,630.5,591.51,631.43Z"/><path class="cls-9" d="M331.59,686.31q12.06,4.1,24.35,7.58c4.41-7.53,13.22-12.78,15.11-21.41a2,2,0,0,0,0-1.15,2.11,2.11,0,0,0-.92-.83A46.24,46.24,0,0,0,351,664.9c-5.29-.3-7.71,5.2-10.09,9.08C340,675.7,333.74,687.15,331.59,686.31Z"/><path class="cls-8" d="M342.86,680.94a17.67,17.67,0,0,1-11.85-7.8c-1.1-2-2.33-4.67-4.62-4.4s-3,2.64-3.53,4.71a131.77,131.77,0,0,1-6.65,22.86A42.86,42.86,0,0,1,302,715c-3,2.07-6.3,3.61-9.26,5.82a64,64,0,0,1-7.79,5.9,47.77,47.77,0,0,1-6,2.2,41.65,41.65,0,0,0-8.55,4.4,17.16,17.16,0,0,0-5.86,5.6,8.08,8.08,0,0,0-.44,7.8,8.32,8.32,0,0,0,5.69,3.87,24.07,24.07,0,0,0,7.09,0c9.38-.66,18.76-1.5,28.14-2.33a81.87,81.87,0,0,0,11.77-1.63l6.12-1.68a49,49,0,0,1,10.7-1.58,8.28,8.28,0,0,1,3.13.31c2.16.7,3.7,2.86,5.95,3.3a10,10,0,0,0,4.4-.57,97.28,97.28,0,0,1,20.84-2.16c3.08,0,6.69-.79,8.1-3.52,1.76-3.44-1.15-7.27-2.33-11a34.84,34.84,0,0,1-1-7.18,43.73,43.73,0,0,0-5.16-17.09c-2.38-4.41-5.64-9.25-4-13.92a13.25,13.25,0,0,0,1.58-4.8C364.53,679.22,347.18,681.91,342.86,680.94Z"/><path class="cls-9" d="M515.62,548.88a40.15,40.15,0,0,1-20.53-20.35c-.84-1.94-1.54-4-2.38-5.95a45.12,45.12,0,0,0-12.24-17,6.08,6.08,0,0,0-4.41-1.9,4.82,4.82,0,0,0-3.3,3.57,13.66,13.66,0,0,0-.35,5.51,98.16,98.16,0,0,0,2.2,12.86l2.51,11.36a24.93,24.93,0,0,0,1.54,5.07,17.91,17.91,0,0,0,4.19,5c2.29,2.11,4.62,4.14,7,6.16a23.3,23.3,0,0,0,4.4,3,25.3,25.3,0,0,0,7.8,2.29,66.39,66.39,0,0,1,29.25,11.28V561.3a11.23,11.23,0,0,0-2.21-6.12A38.94,38.94,0,0,0,515.62,548.88Z"/><path class="cls-4" d="M515.62,548.88a40.15,40.15,0,0,1-20.53-20.35c-.84-1.94-1.54-4-2.38-5.95a45.12,45.12,0,0,0-12.24-17,6.08,6.08,0,0,0-4.41-1.9,4.82,4.82,0,0,0-3.3,3.57,13.66,13.66,0,0,0-.35,5.51,98.16,98.16,0,0,0,2.2,12.86l2.51,11.36a24.93,24.93,0,0,0,1.54,5.07,17.91,17.91,0,0,0,4.19,5c2.29,2.11,4.62,4.14,7,6.16a23.3,23.3,0,0,0,4.4,3,25.3,25.3,0,0,0,7.8,2.29,66.39,66.39,0,0,1,29.25,11.28V561.3a11.23,11.23,0,0,0-2.21-6.12A38.94,38.94,0,0,0,515.62,548.88Z"/><ellipse class="cls-8" cx="619.13" cy="449.33" rx="12.51" ry="12.6"/><path class="cls-8" d="M611.38,441.76a13.49,13.49,0,0,0-9.87,1.41,13.7,13.7,0,0,0-3.39,4.62,67.29,67.29,0,0,0-6.52,15.33c-1.1,4.4-1.28,9.38-2.69,13.92-2.55,8.37-9.11,15.46-9.86,24.18-.35,3.92.31,8.5-2.56,11.14a15.43,15.43,0,0,1-2.24,1.63,16.94,16.94,0,0,0-4.94,5.07,16.5,16.5,0,0,1-3.48,4.8c-2.55,1.9-6.78,1.72-8,4.41s2,6.34,1.23,9.51-3.52,3.79-5.51,5.55a19.32,19.32,0,0,0-4.75,8.81,29.39,29.39,0,0,1-24-5.95,76.28,76.28,0,0,1,3.75,27.4,11.2,11.2,0,0,1-2.2,8.46,152.66,152.66,0,0,1,29.38,5.11,20.2,20.2,0,0,0,12.81,0,21.6,21.6,0,0,0,5.91-4.67c5.28-5.37,10.83-11.23,12.11-18.68a108.75,108.75,0,0,0,.22-12.64A70.78,70.78,0,0,1,590,535.8a183.36,183.36,0,0,0,5.59-31.63c.57-6.61,6.3-11.89,9.29-17.62,5.64-11.14,11.46-22.73,11.85-35.24C616.93,447.26,615.52,442.2,611.38,441.76Z"/><path class="cls-4" d="M611.38,441.76a13.49,13.49,0,0,0-9.87,1.41,13.7,13.7,0,0,0-3.39,4.62,67.29,67.29,0,0,0-6.52,15.33c-1.1,4.4-1.28,9.38-2.69,13.92-2.55,8.37-9.11,15.46-9.86,24.18-.35,3.92.31,8.5-2.56,11.14a15.43,15.43,0,0,1-2.24,1.63,16.94,16.94,0,0,0-4.94,5.07,16.5,16.5,0,0,1-3.48,4.8c-2.55,1.9-6.78,1.72-8,4.41s2,6.34,1.23,9.51-3.52,3.79-5.51,5.55a19.32,19.32,0,0,0-4.75,8.81,29.39,29.39,0,0,1-24-5.95,76.28,76.28,0,0,1,3.75,27.4,11.2,11.2,0,0,1-2.2,8.46,152.66,152.66,0,0,1,29.38,5.11,20.2,20.2,0,0,0,12.81,0,21.6,21.6,0,0,0,5.91-4.67c5.28-5.37,10.83-11.23,12.11-18.68a108.75,108.75,0,0,0,.22-12.64A70.78,70.78,0,0,1,590,535.8a183.36,183.36,0,0,0,5.59-31.63c.57-6.61,6.3-11.89,9.29-17.62,5.64-11.14,11.46-22.73,11.85-35.24C616.93,447.26,615.52,442.2,611.38,441.76Z"/><path class="cls-8" d="M599.66,642.26c-10.7-5.11-18.54-14.58-27.22-22.73-16.52-15.54-36.74-26.42-54.13-41.09-11.55-9.65-22-20.88-34.49-29a86.23,86.23,0,0,0-37-12.9,9.66,9.66,0,0,0-4.41,0,10.17,10.17,0,0,0-4.18,3.3,133.1,133.1,0,0,0-14.93,20.48c-22,37.44-53.34,68.9-79.29,103.69a6.86,6.86,0,0,0-1.28,2.47,6.09,6.09,0,0,0,1,3.83L349,680.63c3,5.81,7.71,12.55,14.05,11.41a15.43,15.43,0,0,0,7.36-4.72l23.69-22.68L419,640.9c14.53-13.88,29.33-28.11,38.85-45.9,7.4,12.86,20.57,21.27,29.55,33,3.44,4.4,6.26,9.38,9.34,14.14,4.89,7.57,10.49,14.71,16,22l28.49,36.34a54.74,54.74,0,0,0,13.22,13.21,50.4,50.4,0,0,0,22.86,6.13,303.48,303.48,0,0,0,32.2,1.14,55.56,55.56,0,0,0,24-4.4,21.78,21.78,0,0,0,13-19.34,28.36,28.36,0,0,0-4.1-12C632.13,666.89,618.82,651.38,599.66,642.26Z"/><ellipse class="cls-10" cx="626.84" cy="458.05" rx="9.65" ry="9.69"/><path class="cls-9" d="M624.73,450.79a18.52,18.52,0,0,1,1,13.92,56.58,56.58,0,0,1-6.21,12.81A61,61,0,0,1,611.51,489c14.89.7,29.29-5.11,42.38-12.16,10.57-5.68,21.09-12.69,26.73-23.3a12.35,12.35,0,0,1-9.86-1.85,35.6,35.6,0,0,1-7.54-7l-7.44-8.37a33.44,33.44,0,0,1-4.41-6,16.74,16.74,0,0,1-2-9.74,56.89,56.89,0,0,1-9.86,8.2c-5.33,3.48-11.19,6-16.57,9.42-1.85,1.24-6.08,3.18-5,5.64S623.23,448.14,624.73,450.79Z"/><path class="cls-4" d="M624.73,450.79a18.52,18.52,0,0,1,1,13.92,56.58,56.58,0,0,1-6.21,12.81A61,61,0,0,1,611.51,489c14.89.7,29.29-5.11,42.38-12.16,10.57-5.68,21.09-12.69,26.73-23.3a12.35,12.35,0,0,1-9.86-1.85,35.6,35.6,0,0,1-7.54-7l-7.44-8.37a33.44,33.44,0,0,1-4.41-6,16.74,16.74,0,0,1-2-9.74,56.89,56.89,0,0,1-9.86,8.2c-5.33,3.48-11.19,6-16.57,9.42-1.85,1.24-6.08,3.18-5,5.64S623.23,448.14,624.73,450.79Z"/><path class="cls-10" d="M626.27,452.24a12.56,12.56,0,0,0,0,14.54c.44.52,2,3.83,2.68,3.87a2.41,2.41,0,0,0,1.68-.88,109.8,109.8,0,0,0,9.42-11.23,21,21,0,0,1,12-7.84,25.86,25.86,0,0,1,16.51,5.15,15.74,15.74,0,0,1,5.69,4.41,15.47,15.47,0,0,1,1.85,6.29,304.33,304.33,0,0,1,1.67,40,158.39,158.39,0,0,1-1.89,28.86c-1,4.89-2.38,9.69-3,14.66a92.69,92.69,0,0,0-.62,13.22v18.41a48.72,48.72,0,0,0,.7,10.09c.89,4,2.78,7.75,4.06,11.67a76.92,76.92,0,0,1,2.68,13.79l2.51,19c.8,6,1.41,12.55-2.24,17.62-1.63,2.15-3.79,3.92-5.46,6.07-6.21,8.11-4.41,19.69-6.83,29.6a36.87,36.87,0,0,1-12.07,18.5,20,20,0,0,1-15.9,5.69c-7.75-1.46-12.38-9.52-14.49-17.14s-2.87-15.9-7.45-22.33A59.08,59.08,0,0,0,603,662a25.46,25.46,0,0,1-11.5-14.93c-.48-2.78,0-5.64-.48-8.46a19.92,19.92,0,0,0-12.29-16.16c-4-1.55-8.81-2.12-11.1-5.73a26.73,26.73,0,0,0,11.58-15.55A79.63,79.63,0,0,0,582,581.56l1.32-22c.62-9.91.89-19.69,5.25-28.59,1.93-4,4.4-7.71,6.38-11.63a125.42,125.42,0,0,0,6.83-17C605,493.2,608.16,484.13,611,475a51.55,51.55,0,0,1,5-12.73C618.38,458.1,621.82,453.12,626.27,452.24Z"/><path class="cls-8" d="M575.79,595.33h5.86l1.23-8.81a18.62,18.62,0,0,1,1.23-5.15,31.46,31.46,0,0,1,3.39-4.93c5.73-8.15,5.33-18.94,6.74-28.86a147,147,0,0,1,12.87-37.7l11.36-25.33a34.93,34.93,0,0,0,2.47-6.47,39.26,39.26,0,0,0,.7-7.49c0-3.92,1.24-18.19,1.37-22,0-1.45-3.22-.66-3.88-1.93-1.41-2.82-3.35,4.8-6,6.47a14.77,14.77,0,0,0-5.25,7.67c-2.46,6.34-4,13.21-6.25,19.51A39.89,39.89,0,0,1,591,497.55c-2.33,2-5,3.65-7.22,5.85-7,7-7.75,18-8,28C575.61,537.45,574.47,595.33,575.79,595.33Z"/><path class="cls-8" d="M660.1,441.71A20,20,0,0,0,649.66,456a72.91,72.91,0,0,1-5.29,17.62c-7.13,12.42-25.33,16-30.39,29.46A53.91,53.91,0,0,0,612,517c-.88,9.65-4.05,18.94-5,28.54a127.2,127.2,0,0,0,.53,22.42l6.39,75.85a101.28,101.28,0,0,1-1.9,33.39A32.1,32.1,0,0,0,631.07,674c5.95-2.73,11.41-6.47,17.18-9.64,9.86-5.47,20.79-9.3,29.47-16.57a18.06,18.06,0,0,0,4-4.4,37.78,37.78,0,0,0,2.64-10,53.72,53.72,0,0,1,2.87-7.84,233.41,233.41,0,0,0,8.28-23.43,135.7,135.7,0,0,0,3.79-16c.7-4.41,1.1-8.81,1.45-13.22a77.48,77.48,0,0,1,4-20,161.6,161.6,0,0,0,9.3-48.1,25.3,25.3,0,0,0-.49-7.05,37.64,37.64,0,0,0-3.88-8.06c-2.64-5-4.4-10.44-6.69-15.5a76.28,76.28,0,0,0-26-27.36C671.86,443.34,665.87,439.64,660.1,441.71Z"/><path class="cls-9" d="M527,565.49a46.18,46.18,0,0,1-12.12-9.21c-1.58-1.85-2.9-3.92-4.4-5.77a30.06,30.06,0,0,0-15.24-8.81A74.57,74.57,0,0,0,477.65,540a32.09,32.09,0,0,0-11.76,1.41,12,12,0,0,0-7.8,8.37,13.89,13.89,0,0,0,6,12.34,28,28,0,0,0,11.85,5.72,93.8,93.8,0,0,0,10.7,1.28c21.06,2.2,39.86,13.65,58.32,24.09q24.32,13.83,49.6,25.73a104.38,104.38,0,0,0,.84-15.2c0-3.79-.31-9.6-3.88-11.85a78.19,78.19,0,0,0-15.77-4.71,248.82,248.82,0,0,1-31.76-12.86A158.76,158.76,0,0,1,527,565.49Z"/><ellipse class="cls-9" cx="619.13" cy="408.72" rx="37.53" ry="37.75"/><path class="cls-8" d="M670.8,484.48a60.18,60.18,0,0,0-7.27,13.61c-4.4,9.52-11.89,17.62-15.55,27.71s-3.7,23-11.23,31.27a11,11,0,0,0-3.3,4.76,22.18,22.18,0,0,1-.36,3.44c-1.1,3-6,3.12-6.91,6.21-.27.88,0,1.85-.44,2.73-.75,2-3.39,2.29-5.11,3.48-3.66,2.47-2.91,8.19-5.51,11.76a9.92,9.92,0,0,1-9.38,3.3A32.89,32.89,0,0,1,596,589.1a9.33,9.33,0,0,0-3.53-1.1,7.24,7.24,0,0,0-4.05,1.41,25,25,0,0,0-10.13,21.36,69.71,69.71,0,0,0,5.81,23.92,9.51,9.51,0,0,0,1.9,3.56,8.41,8.41,0,0,0,9.34.71,44.12,44.12,0,0,1,9.11-4.1c5.82-1.05,11.5,2.95,17.4,2.6a24.12,24.12,0,0,0,11.72-5.15,64.77,64.77,0,0,0,15.77-13.22c2.55-3.39,4.4-7.22,6.69-10.83a140.57,140.57,0,0,1,9.47-12.64l21.68-26.43a61.1,61.1,0,0,0,5.81-8,56.26,56.26,0,0,0,4.4-12.11,92.65,92.65,0,0,0,4.41-21.54,82.91,82.91,0,0,0-1.59-18.06,63.76,63.76,0,0,0-4.4-17.23C691.11,482.28,679.65,474.18,670.8,484.48Z"/><path class="cls-11" d="M745.34,434.38A41.08,41.08,0,0,0,728.49,401a48.8,48.8,0,0,0-41.44-47.51A47.34,47.34,0,0,0,593.78,356c-15.14-3.42-29,1-31.52,10.35s8.17,21.38,24.12,25.66a44.93,44.93,0,0,0,15.48,1.54,47.38,47.38,0,0,0,32.59,20.31A48.63,48.63,0,0,0,670,450.59a40.91,40.91,0,0,0,11,15.18v2.17c0,16.94,13,31.79,30,32.25a30.84,30.84,0,0,0,31.68-30.78v-.09a33,33,0,0,0-3-13.64A41.27,41.27,0,0,0,745.34,434.38Z"/><path class="cls-4" d="M568.21,365.84c2.6-9.6,16.87-14.18,32.47-10.66a49.6,49.6,0,0,1,48.45-41.76h3.21a48,48,0,0,0-13.83-2.07,49.61,49.61,0,0,0-48.45,41.76c-15.59-3.52-29.86,1.06-32.46,10.66s8.41,22,24.84,26.43a48.6,48.6,0,0,0,9.43,1.63C576.14,387.12,565.61,375.66,568.21,365.84Z"/><path class="cls-4" d="M691.63,473.07c-.06-1.2-.06-2.4,0-3.61a41.16,41.16,0,0,1-11.32-15.63A50,50,0,0,1,643.67,416a48.69,48.69,0,0,1-33.61-20.88,42,42,0,0,1-9.38-.27,48.91,48.91,0,0,0,32.37,19.25,50.1,50.1,0,0,0,36.65,37.8A41.94,41.94,0,0,0,681,467.52v3.66A32.33,32.33,0,0,0,712.6,504,32.89,32.89,0,0,1,691.63,473.07Z"/><ellipse class="cls-9" cx="631.68" cy="416.44" rx="5.77" ry="7.71" transform="translate(-123.23 466.91) rotate(-37.22)"/></g></g></svg>