<svg xmlns="http://www.w3.org/2000/svg" viewBox="0 0 168.68 168.68"><defs><style>.cls-1{fill:#3D8BFD;}.cls-2{opacity:0.2;isolation:isolate;}.cls-3{fill:#2f2e41;}.cls-4{fill:#fff7d7;}.cls-5{fill:#d0cde1;}</style></defs><title>girl-user</title><g id="Layer_2" data-name="Layer 2"><g id="Layer_1-2" data-name="Layer 1"><path class="cls-1" d="M168.68,84.34A84.22,84.22,0,0,1,162.55,116s0,0,0,.06h0a84.15,84.15,0,0,1-10.68,18.88c-.84,1.12-1.71,2.22-2.6,3.3l-1,1.17q-2.56,3-5.4,5.7l-1.33,1.26-.32.29a82.85,82.85,0,0,1-6.89,5.66c-1.61,1.19-3.27,2.32-5,3.39l-1.12.7-2,1.17c-.87.5-1.75,1-2.64,1.45l-1.08.56c-.53.27-1.06.54-1.6.79l-.28.14-1,.49a83.2,83.2,0,0,1-14.34,5.09l-.08,0-1,.24-.73.17-.1,0c-.5.11-1,.23-1.51.33L101,167l-.52.1-.65.12-.36.07-.82.14-1.4.23-1,.15-1.21.16-.32,0-.43.06-.86.09-.45.05-.85.08-1.11.1c-.45,0-.89.07-1.35.09l-.87.05c-.74,0-1.48.07-2.23.09l-1.12,0H84.34A84.38,84.38,0,0,1,73,167.92q-4.14-.55-8.14-1.5l-.32-.08-.8-.2c-.24,0-.47-.12-.71-.18a84.22,84.22,0,0,1-17.62-6.78l-.08-.05-.48-.25-1.06-.57c-2-1.09-3.91-2.25-5.79-3.5q-.73-.47-1.44-1l-.45-.32-.47-.33-1.23-.88c-1.68-1.24-3.32-2.54-4.9-3.9A84.84,84.84,0,0,1,14.74,132c-1.46-2.12-2.82-4.32-4.08-6.58a84.35,84.35,0,1,1,158-41.07Z"/><path class="cls-2" d="M98,166.28l.8-.19.71-.19c0-.49,0-1,0-1.63.15-4.63.5-12.09,1.32-21.07,0-.48.09-1,.13-1.46.29-3,.64-6.24,1-9.56,0-.11,0-.22,0-.33.34-2.69.71-5.45,1.14-8.26.29-2,.62-4,1-6,0-.14,0-.28.08-.42l.3-1.74c.29-1.63.61-3.26.93-4.89,1.15-5.75,2.52-11.54,4.16-17.16a136.2,136.2,0,0,1,6.12-17.12,83.53,83.53,0,0,1,6.67-12.44,1.63,1.63,0,0,0,.11-.17A47.67,47.67,0,0,1,133.85,51.4L133,50.18a49,49,0,0,0-11.29,12l0,.07a82.94,82.94,0,0,0-6.72,12,130.19,130.19,0,0,0-6.4,17.31q-2.46,8.25-4.41,17.86c-.46,2.26-.89,4.57-1.31,6.94l-.21,1.22h0c-.11.63-.21,1.25-.31,1.88-.26,1.59-.51,3.17-.74,4.73q-.52,3.61-1,7.11l-.27,2.29c-.13,1.07-.24,2.12-.36,3.16-.15,1.45-.3,2.86-.43,4.25l0,.38-.06.66C98.39,153,98.07,161.85,98,166.28Z"/><path class="cls-2" d="M117.1,159.12l.09-.05c.51-.26,1-.54,1.53-.82.17-2,.39-4.17.69-6.48.06-.47.12-1,.19-1.44,0-.25.07-.52.11-.78.3-2,.65-4.12,1.06-6.22,1.71-8.57,4.54-17.34,9.24-22.75.25-.29.51-.57.77-.84a16,16,0,0,1,2.15-1.88l-.89-1.21a18.74,18.74,0,0,0-2.94,2.69c-.31.35-.62.71-.91,1.08-4.33,5.44-7,13.5-8.71,21.48-.44,2.08-.81,4.16-1.12,6.18-.08.53-.16,1-.23,1.57C117.64,153.08,117.32,156.32,117.1,159.12Z"/><circle class="cls-2" cx="142.24" cy="43.85" r="7.51"/><circle class="cls-2" cx="139.82" cy="108.48" r="7.51"/><path class="cls-2" d="M112.43,56.47a33.37,33.37,0,0,1-1.92,17.11,33.32,33.32,0,0,1-7.69-15.41,33.42,33.42,0,0,1,1.92-17.12A33.32,33.32,0,0,1,112.43,56.47Z"/><path class="cls-2" d="M137.38,77.79a33.51,33.51,0,0,1-17.17,1.12,33.48,33.48,0,0,1,13.85-10.22,33.39,33.39,0,0,1,17.17-1.12A33.57,33.57,0,0,1,137.38,77.79Z"/><path class="cls-2" d="M138.84,135a23.31,23.31,0,0,1-12,.76,21.29,21.29,0,0,1,21.74-8A23.39,23.39,0,0,1,138.84,135Z"/><path class="cls-3" d="M109.86,133.76l.3.15C110.13,134.24,110.06,134.44,109.86,133.76Z"/><path class="cls-3" d="M110.26,133.86a.41.41,0,0,0,0,.11l-.11-.06a.38.38,0,0,1,0-.1C110.19,133.37,110.16,132.86,110.26,133.86Z"/><circle class="cls-3" cx="77.85" cy="80.95" r="40.97"/><circle class="cls-4" cx="81.22" cy="95.44" r="24.81"/><path class="cls-4" d="M137.88,143h0l-5.77,1.38-12,2.89-1.64.39-18.27,4.38-1.56.38L54.26,163.07a85.3,85.3,0,0,1-8.78-3.95l-.08-.05-.48-.25-1.05-.57q-3-1.63-5.8-3.49c-.49-.32-1-.64-1.44-1l-.45-.31-.47-.33-1.23-.89c4.31-7.83,14.57-13,24.82-15.88,7.74-2.15,9.44-9.22,9.3-15.51a36.17,36.17,0,0,0-.37-4.28,41.32,41.32,0,0,0-1.49-6.68l24.82.83,2.56,5.9a14.13,14.13,0,0,0-.07,2c.2,4.84,3.18,8,6.87,10,.48.26,1,.51,1.47.73a38.89,38.89,0,0,0,13.16,2.94,25.34,25.34,0,0,1,6.51.12c.52.08,1,.17,1.52.29a22,22,0,0,1,8,3.58,23.07,23.07,0,0,1,2.59,2.15A20.72,20.72,0,0,1,137.88,143Z"/><path class="cls-5" d="M141.6,146.27l-.31.29a83,83,0,0,1-6.9,5.66q-2.41,1.78-5,3.39l-1.12.7q-1,.6-2,1.17c-.87.5-1.75,1-2.64,1.45-.36.2-.72.38-1.08.56-.53.28-1.06.54-1.6.8l-.27.13-1.06-.88,12.4-15.15,2.49-3s1,0,3.28,1.67a32.58,32.58,0,0,1,3.57,3.08Z"/><path class="cls-3" d="M141.43,146.16a4,4,0,0,1-.14.46,83,83,0,0,1-6.9,5.66,29.61,29.61,0,0,1-6.44,1.53s.19.94.36,2.56q-1,.6-2,1.17c-.87.5-1.75,1-2.64,1.45l-1.08.56c-.53.27-1.06.54-1.6.79l-.27.14-1.06.49a82.9,82.9,0,0,1-14.34,5.09l-.08,0-1,.24-.73.17-.09,0-1.51.33-.86.18-.51.1-.65.12-.37.07-.82.14-1.4.23-1,.15-1.2.16-.33,0-.43.06-.86.09-.45.05-.85.08-1.1.1c-.45,0-.9.07-1.35.09l-.87.05c-.75,0-1.49.07-2.24.09l-1.12,0H84.41a84.38,84.38,0,0,1-11.34-.76q-4.14-.55-8.14-1.5l-.32-.08-.8-.2c-.24,0-.47-.12-.71-.18a84.22,84.22,0,0,1-17.62-6.78l-.08-.05-.48-.25c13.69-3.2,35.34-8.23,54.12-12.54l1.57-.36c6.94-1.59,13.43-3.07,18.93-4.31l1.67-.38c5.91-1.33,10.5-2.33,13-2.84a20,20,0,0,1,2-.35l5.2,8Z"/><circle class="cls-3" cx="40.36" cy="51.31" r="12.21"/><circle class="cls-3" cx="115.33" cy="47.82" r="12.21"/><path class="cls-3" d="M102.26,42.59a12.2,12.2,0,0,1,10.89-12.13,12.2,12.2,0,0,0-2.65,24.26,11.74,11.74,0,0,0,2.65,0A12.2,12.2,0,0,1,102.26,42.59Z"/><path class="cls-3" d="M26.72,61.18A12.2,12.2,0,0,1,26,44.89,12.21,12.21,0,0,0,41.1,64.08,11.94,11.94,0,0,0,43,62.22,12.21,12.21,0,0,1,26.72,61.18Z"/><path class="cls-3" d="M77.92,61.77C63.48,61.77,51.77,68.6,51.77,77c0,3.77,2.35,7.21,6.24,9.87l5-3.64L61.68,89c.56.26,1.14.52,1.75.75L71,81V91.73a44.06,44.06,0,0,0,7,.55c14.45,0,26.16-6.83,26.16-15.25S92.37,61.77,77.92,61.77Z"/><path class="cls-3" d="M103.13,47.82s-1.9,8.72,10,12.21Z"/><path class="cls-3" d="M51.69,49.41s4.36,9.74-8.72,14.1Z"/><ellipse class="cls-4" cx="56.82" cy="100.4" rx="2.07" ry="4.96" transform="translate(-24.96 19.03) rotate(-15.64)"/><ellipse class="cls-4" cx="106.45" cy="96.27" rx="4.96" ry="2.07" transform="translate(3.82 196.59) rotate(-86.48)"/></g></g></svg>