<svg xmlns="http://www.w3.org/2000/svg" viewBox="0 0 779.35 542.15"><defs><style>.cls-1,.cls-5{fill:#3D8BFD;}.cls-1{opacity:0.6;}.cls-2{fill:#2f2e41;}.cls-3{fill:#3f3d56;}.cls-4{fill:#fff;}.cls-6{fill:#e6e6e6;}.cls-7{fill:#ffb8b8;}</style></defs><title>login-design</title><g id="Layer_2" data-name="Layer 2"><g id="Layer_1-2" data-name="Layer 1"><ellipse class="cls-1" cx="155.26" cy="530.36" rx="155.26" ry="11.79"/><path class="cls-2" d="M118.67,120.29c27-11.49,60.68-4.21,93.54.85.31-6.12,4-13.57.13-17.84-4.72-5.19-4.28-10.64-1.44-16.12,7.26-14-3.14-28.93-13.65-41.33a23.23,23.23,0,0,0-19.41-8.15l-19.45,1.39A23.29,23.29,0,0,0,137.7,55.74h0c-4.64,6.32-7.13,12.62-5.57,18.88-6.95,4.76-8.12,10.5-5,17q4,6.1-.12,11.89a55,55,0,0,0-8.16,16.22Z"/><path class="cls-2" d="M760.76,468.52H210.08a18.47,18.47,0,0,1-18.47-18.46h0q299.45-34.8,587.62,0h0a18.47,18.47,0,0,1-18.47,18.46Z"/><path class="cls-3" d="M779.35,450.83l-587.08-1.08,68-114.58.32-.55V82.1A23.34,23.34,0,0,1,284,58.76H684.41A23.33,23.33,0,0,1,707.73,82.1h0V336.36Z"/><path class="cls-4" d="M283,75.47a7.62,7.62,0,0,0-7.61,7.61V313.52a7.63,7.63,0,0,0,7.61,7.61H688.33a7.63,7.63,0,0,0,7.61-7.61V83.08a7.62,7.62,0,0,0-7.61-7.61Z"/><path class="cls-2" d="M284.76,351.59a3.25,3.25,0,0,0-2.95,1.89l-21,45.57a3.26,3.26,0,0,0,1.6,4.32,3.21,3.21,0,0,0,1.36.3H704.49a3.34,3.34,0,0,0,2.83-1.44,3.26,3.26,0,0,0,.21-3.27l-22.79-45.57a3.22,3.22,0,0,0-2.91-1.8Z"/><circle class="cls-4" cx="483.79" cy="66.8" r="4.89"/><path class="cls-2" d="M439.62,411.53a3.32,3.32,0,0,0-3.2,2.45l-5.34,19.84a3.31,3.31,0,0,0,.18,2.36,3.37,3.37,0,0,0,3,1.88H536.1a3.28,3.28,0,0,0,2.3-.85,3.38,3.38,0,0,0,.88-3.55l-6.89-19.9a3.31,3.31,0,0,0-3.13-2.23Z"/><polygon class="cls-2" points="707.73 331.94 707.73 335.87 260.3 335.87 260.63 335.38 260.63 331.94 707.73 331.94"/><circle class="cls-5" cx="695.05" cy="76.03" r="76.03"/><path class="cls-4" d="M727,109.86h-63a4.37,4.37,0,0,1-4.35-4.39V67.08a4.38,4.38,0,0,1,4.35-4.39h63a4.38,4.38,0,0,1,4.35,4.39v38.39A4.37,4.37,0,0,1,727,109.86ZM663.51,66.63V105H726.4V66.63Z"/><path class="cls-4" d="M714.61,66.63H675.3V49.25c0-12.59,8.27-21.73,19.66-21.73s19.65,9.14,19.65,21.73Zm-34.39-3.94h30.46v-13c0-10.23-6.27-17.38-15.23-17.38s-15.23,7.15-15.23,17.38Z"/><circle class="cls-4" cx="695.05" cy="84.72" r="4.34"/><path class="cls-6" d="M642,242.52H329.31a5.82,5.82,0,0,1-5.79-5.81v-77.8a5.8,5.8,0,0,1,5.79-5.81H642a5.8,5.8,0,0,1,5.79,5.81v77.8A5.82,5.82,0,0,1,642,242.52ZM329,156a3.49,3.49,0,0,0-3.48,3.48v77.56a3.48,3.48,0,0,0,3.48,3.47H642.34a3.48,3.48,0,0,0,3.48-3.47V159.52a3.49,3.49,0,0,0-3.48-3.48Z"/><circle class="cls-6" cx="377.52" cy="195.24" r="23.62"/><path class="cls-6" d="M432.21,179.63a4,4,0,0,0-3.59,5.62,3.84,3.84,0,0,0,3.57,2.24H617.35a4,4,0,0,0,4-3.12,3.93,3.93,0,0,0-3.85-4.74Z"/><path class="cls-6" d="M432.13,203.21a3.93,3.93,0,0,0-3.85,4.74,4,4,0,0,0,4,3.12h79.43a4,4,0,0,0,4-3.12,3.94,3.94,0,0,0-3.85-4.74Z"/><path class="cls-7" d="M258.94,204.71l-57.88,30.77-.73-25.64c18.89-3.16,36.87-8.65,53.49-17.59l6.05-14.95a10.13,10.13,0,0,1,17.23-2.63h0a10.13,10.13,0,0,1-.89,13.82Z"/><path class="cls-2" d="M117.52,382.37h0a11.4,11.4,0,0,1,1.44-9.2l12.72-19.51a22.21,22.21,0,0,1,28.82-7.6h0c-5.34,9.09-4.59,17.07,1.85,24a115.76,115.76,0,0,0-27.45,18.72,11.38,11.38,0,0,1-17.38-6.41Z"/><path class="cls-2" d="M261.58,356.72h0A21.82,21.82,0,0,1,243,367.31l-84.47.64-3.66-21.25,37.36-11-31.5-24.17,34.43-40.3,62.55,58.29A21.83,21.83,0,0,1,261.58,356.72Z"/><path class="cls-2" d="M145.38,501.93H125.6c-17.76-121.75-35.84-243.83,17.58-289.4l63,10.26-8.06,53.48L163,316.57Z"/><path class="cls-2" d="M162.77,529.75h0a11.36,11.36,0,0,1-9.2-1.45l-21.48-2.88a22.22,22.22,0,0,1-7.6-28.83h0c9.09,5.34,17.07,4.6,24-1.85,4.9,9.9,13,9.29,20.69,17.63a11.38,11.38,0,0,1-6.41,17.38Z"/><path class="cls-7" d="M192.27,131.44l-36.63-8.79c6.08-12.45,6.59-26.31,3.66-41l24.91-.73C185,99.19,187.36,116.29,192.27,131.44Z"/><path class="cls-5" d="M202.34,245.09c-26.67,18.17-45.51.62-59.89-26.46,2-16.57-1.24-36.4-7.23-57.94a39.45,39.45,0,0,1,24.08-47.56h0l31.51,13.19c26.75,21.8,32,45.42,22,70.33Z"/><path class="cls-7" d="M125.6,149.76,96.29,165.15l52,30.77,7.24,17.85a9.46,9.46,0,0,1-5.22,12.33,3.8,3.8,0,0,1-.47.18h0a9.46,9.46,0,0,1-12.54-8.39l-.73-12.45L70.48,183.62a15.46,15.46,0,0,1-9.71-9.44h0a15.48,15.48,0,0,1,5.8-18l53.17-36.47Z"/><path class="cls-5" d="M154.51,152.69c-12.22-5.36-23.34.46-37.37,5.13L115,119c13.93-7.43,27.21-9.43,39.56-3.66Z"/><circle class="cls-7" cx="169.53" cy="76.74" r="23.39"/><path class="cls-2" d="M197.74,73.86c-23.15,2.26-40.8-1.52-52.07-12.31V52.87h50.11Z"/></g></g></svg>